<?xml version="1.0" encoding="UTF-8" standalone="no"?>
<!DOCTYPE svg PUBLIC "-//W3C//DTD SVG 1.0//EN" "http://www.w3.org/TR/2001/REC-SVG-20010904/DTD/svg10.dtd">
<!-- Generated by Microsoft Visio 11.0, SVG Export, v1.0 B6.svg Inverter -->
<svg xmlns="http://www.w3.org/2000/svg" xmlns:xlink="http://www.w3.org/1999/xlink" xmlns:ev="http://www.w3.org/2001/xml-events"
		xmlns:v="http://schemas.microsoft.com/visio/2003/SVGExtensions/" width="11.6929in" height="8.26772in"
		viewBox="0 0 841.89 595.276" xml:space="preserve" color-interpolation-filters="sRGB" class="st15">
	<v:documentProperties v:langID="2057" v:metric="true" v:viewMarkup="false">
		<v:userDefs>
			<v:ud v:nameU="msvNoAutoConnect" v:val="VT0(1):26"/>
		</v:userDefs>
	</v:documentProperties>

	<style type="text/css">
	<![CDATA[
		.st1 {fill:#222222;stroke:none;stroke-linecap:round;stroke-linejoin:round;stroke-width:0.75}
		.st2 {stroke:#ffffff;stroke-linecap:round;stroke-linejoin:round;stroke-width:2.25}
		.st3 {marker-end:url(#mrkr10-23);marker-start:url(#mrkr10-21);stroke:#ffffff;stroke-linecap:round;stroke-linejoin:round;stroke-width:2.25}
		.st4 {fill:#ffffff;fill-opacity:1;stroke:#ffffff;stroke-opacity:1;stroke-width:0.47169811320755}
		.st5 {fill:#ffffff;stroke:#ffffff;stroke-linecap:round;stroke-linejoin:round;stroke-width:2.25}
		.st6 {marker-end:url(#mrkr20-34);stroke:#ffffff;stroke-linecap:round;stroke-linejoin:round;stroke-width:2.25}
		.st7 {marker-end:url(#mrkr10-23);stroke:#ffffff;stroke-linecap:round;stroke-linejoin:round;stroke-width:2.25}
		.st8 {fill:#000000;stroke:#ffffff;stroke-linecap:round;stroke-linejoin:round;stroke-width:2.25}
		.st9 {fill:#ffffff;font-family:Calibri;font-size:1.00001em}
		.st10 {fill:none;stroke:none;stroke-linecap:round;stroke-linejoin:round;stroke-width:2.25}
		.st11 {fill:#ffffff;font-family:Calibri;font-size:1.33333em;font-weight:bold}
		.st12 {fill:#ffffff;font-family:Calibri;font-size:1.99999em;font-weight:bold}
		.st13 {baseline-shift:-32.4951%;font-size:0.649901em}
		.st14 {baseline-shift:-32.4948%;font-size:0.649895em}
		.st15 {fill:none;fill-rule:evenodd;font-size:12px;overflow:visible;stroke-linecap:square;stroke-miterlimit:3}
	]]>
	</style>

	<defs id="Markers">
		<g id="lend10">
			<path
					d="M 0 0.75 C -0.414214 0.75 -0.75 0.414214 -0.75 0 -0.75 -0.414214 -0.414214 -0.75 0 -0.75 0.414214 -0.75 0.75 -0.414214 0.75 0 0.75 0.414214 0.414214 0.75 0 0.75 Z "
					style="stroke:none"/>
		</g>
		<marker id="mrkr10-21" class="st4" v:arrowType="10" v:arrowSize="2" v:setback="1.43" refX="1.43" orient="auto"
				markerUnits="strokeWidth" overflow="visible">
			<use xlink:href="#lend10" transform="scale(2.12) "/>
		</marker>
		<marker id="mrkr10-23" class="st4" v:arrowType="10" v:arrowSize="2" v:setback="1.59" refX="-1.59" orient="auto"
				markerUnits="strokeWidth" overflow="visible">
			<use xlink:href="#lend10" transform="scale(-2.12,-2.12) "/>
		</marker>
		<g id="lend20">
			<path
					d="M 0 0.75 C -0.414214 0.75 -0.75 0.414214 -0.75 0 -0.75 -0.414214 -0.414214 -0.75 0 -0.75 0.414214 -0.75 0.75 -0.414214 0.75 0 0.75 0.414214 0.414214 0.75 0 0.75 Z "
					style="stroke-linecap:round;stroke-linejoin:round;fill:none"/>
		</g>
		<marker id="mrkr20-34" class="st4" v:arrowType="20" v:arrowSize="2" v:setback="1.59" refX="-1.59" orient="auto"
				markerUnits="strokeWidth" overflow="visible">
			<use xlink:href="#lend20" transform="scale(-2.12,-2.12) "/>
		</marker>
	</defs>
	<g v:mID="4" v:index="1" v:groupContext="backgroundPage">
		<v:userDefs>
			<v:ud v:nameU="msvVisioCreated" v:prompt="" v:val="VT0(0):26"/>
		</v:userDefs>
		<title>VBackground-1</title>
		<v:pageProperties width="11.6929" height="8.26772" v:drawingScale="0.0393701" v:pageScale="0.0393701" v:drawingUnits="24"
				v:shadowOffsetX="8.50394" v:shadowOffsetY="-8.50394"/>
		<g id="shape1-1" v:mID="1" v:groupContext="shape">
			<title>Solid</title>
			<v:userDefs>
				<v:ud v:nameU="Background" v:val="VT0(0):26"/>
				<v:ud v:nameU="visVersion" v:val="VT0(14):26"/>
				<v:ud v:nameU="msvShapeCategories" v:prompt="" v:val="VT4(DoNotContain)"/>
				<v:ud v:nameU="msvVisioCreated" v:prompt="" v:val="VT0(0):26"/>
			</v:userDefs>
			<rect x="0" y="0" width="841.89" height="595.276" class="st1"/>
		</g>
	</g>
	<g v:mID="5" v:index="4" v:groupContext="foregroundPage">
		<title>B6</title>
		<v:pageProperties v:drawingScale="0.0393701" v:pageScale="0.0393701" v:drawingUnits="24" v:shadowOffsetX="8.50394"
				v:shadowOffsetY="-8.50394"/>
		<g id="shape1-3" v:mID="1" v:groupContext="shape" transform="translate(263.976,-362.126)">
			<title>Sheet.1</title>
			<path d="M0 595.28 L0 481.89 L318.9 481.89" class="st2"/>
		</g>
		<g id="shape2-6" v:mID="2" v:groupContext="shape" transform="translate(363.189,-425.906)">
			<title>Sheet.2</title>
			<path d="M0 595.28 L0 588.19 L7.09 588.19 L7.09 574.02" class="st2"/>
		</g>
		<g id="shape3-9" v:mID="3" v:groupContext="shape" transform="translate(958.465,176.457) rotate(90)">
			<title>Sheet.3</title>
			<path d="M0 595.28 L7.09 595.28" class="st2"/>
		</g>
		<g id="shape4-12" v:mID="4" v:groupContext="shape" transform="translate(363.189,-383.386)">
			<title>Sheet.4</title>
			<path d="M0 574.02 L0 581.1 L7.09 581.1 L7.09 595.28" class="st2"/>
		</g>
		<g id="shape5-15" v:mID="5" v:groupContext="shape" transform="translate(370.276,-383.386)">
			<title>Sheet.5</title>
			<path d="M3.22 595.28 L3.58 595.28 L14.17 595.28 L14.17 531.5 L3.58 531.5" class="st3"/>
		</g>
		<g id="shape6-24" v:mID="6" v:groupContext="shape" transform="translate(377.362,-411.732)">
			<title>Sheet.6</title>
			<path d="M0 595.28 L14.17 595.28 L7.09 581.1 L0 595.28 Z" class="st5"/>
		</g>
		<g id="shape7-26" v:mID="7" v:groupContext="shape" transform="translate(377.362,-425.906)">
			<title>Sheet.7</title>
			<path d="M0 595.28 L14.17 595.28" class="st2"/>
		</g>
		<g id="shape8-29" v:mID="8" v:groupContext="shape" transform="translate(313.583,-397.559)">
			<title>Sheet.8</title>
			<path d="M42.52 595.28 L42.52 559.84 L28.35 559.84 L28.35 574.02 L3.58 574.02" class="st6"/>
		</g>
		<g id="shape9-35" v:mID="9" v:groupContext="shape" transform="translate(965.551,211.89) rotate(90)">
			<title>Sheet.9</title>
			<path d="M0 595.28 L24.77 595.28" class="st7"/>
		</g>
		<g id="shape10-40" v:mID="10" v:groupContext="shape" transform="translate(965.551,240.236) rotate(90)">
			<title>Sheet.10</title>
			<path d="M0 595.28 L28.35 595.28" class="st2"/>
		</g>
		<g id="shape11-43" v:mID="11" v:groupContext="shape" transform="translate(469.488,-425.906)">
			<title>Sheet.11</title>
			<path d="M0 595.28 L0 588.19 L7.09 588.19 L7.09 574.02" class="st2"/>
		</g>
		<g id="shape12-46" v:mID="12" v:groupContext="shape" transform="translate(1064.76,176.457) rotate(90)">
			<title>Sheet.12</title>
			<path d="M0 595.28 L7.09 595.28" class="st2"/>
		</g>
		<g id="shape13-49" v:mID="13" v:groupContext="shape" transform="translate(469.488,-383.386)">
			<title>Sheet.13</title>
			<path d="M0 574.02 L0 581.1 L7.09 581.1 L7.09 595.28" class="st2"/>
		</g>
		<g id="shape14-52" v:mID="14" v:groupContext="shape" transform="translate(476.575,-383.386)">
			<title>Sheet.14</title>
			<path d="M3.22 595.28 L3.58 595.28 L14.17 595.28 L14.17 531.5 L3.58 531.5" class="st3"/>
		</g>
		<g id="shape15-59" v:mID="15" v:groupContext="shape" transform="translate(483.661,-411.732)">
			<title>Sheet.15</title>
			<path d="M0 595.28 L14.17 595.28 L7.09 581.1 L0 595.28 Z" class="st5"/>
		</g>
		<g id="shape16-61" v:mID="16" v:groupContext="shape" transform="translate(483.661,-425.906)">
			<title>Sheet.16</title>
			<path d="M0 595.28 L14.17 595.28" class="st2"/>
		</g>
		<g id="shape17-64" v:mID="17" v:groupContext="shape" transform="translate(419.882,-397.559)">
			<title>Sheet.17</title>
			<path d="M42.52 595.28 L42.52 559.84 L28.35 559.84 L28.35 574.02 L3.58 574.02" class="st6"/>
		</g>
		<g id="shape18-69" v:mID="18" v:groupContext="shape" transform="translate(1071.85,211.89) rotate(90)">
			<title>Sheet.18</title>
			<path d="M0 595.28 L24.77 595.28" class="st7"/>
		</g>
		<g id="shape19-74" v:mID="19" v:groupContext="shape" transform="translate(1071.85,240.236) rotate(90)">
			<title>Sheet.19</title>
			<path d="M0 595.28 L28.35 595.28" class="st2"/>
		</g>
		<g id="shape20-77" v:mID="20" v:groupContext="shape" transform="translate(575.787,-425.906)">
			<title>Sheet.20</title>
			<path d="M0 595.28 L0 588.19 L7.09 588.19 L7.09 574.02" class="st2"/>
		</g>
		<g id="shape21-80" v:mID="21" v:groupContext="shape" transform="translate(1171.06,176.457) rotate(90)">
			<title>Sheet.21</title>
			<path d="M0 595.28 L7.09 595.28" class="st2"/>
		</g>
		<g id="shape22-83" v:mID="22" v:groupContext="shape" transform="translate(575.787,-383.386)">
			<title>Sheet.22</title>
			<path d="M0 574.02 L0 581.1 L7.09 581.1 L7.09 595.28" class="st2"/>
		</g>
		<g id="shape23-86" v:mID="23" v:groupContext="shape" transform="translate(582.874,-383.386)">
			<title>Sheet.23</title>
			<path d="M3.22 595.28 L3.58 595.28 L14.17 595.28 L14.17 531.5 L3.58 531.5" class="st3"/>
		</g>
		<g id="shape24-93" v:mID="24" v:groupContext="shape" transform="translate(589.961,-411.732)">
			<title>Sheet.24</title>
			<path d="M0 595.28 L14.17 595.28 L7.09 581.1 L0 595.28 Z" class="st5"/>
		</g>
		<g id="shape25-95" v:mID="25" v:groupContext="shape" transform="translate(589.961,-425.906)">
			<title>Sheet.25</title>
			<path d="M0 595.28 L14.17 595.28" class="st2"/>
		</g>
		<g id="shape26-98" v:mID="26" v:groupContext="shape" transform="translate(526.181,-397.559)">
			<title>Sheet.26</title>
			<path d="M42.52 595.28 L42.52 559.84 L28.35 559.84 L28.35 574.02 L3.58 574.02" class="st6"/>
		</g>
		<g id="shape27-103" v:mID="27" v:groupContext="shape" transform="translate(1178.15,211.89) rotate(90)">
			<title>Sheet.27</title>
			<path d="M0 595.28 L24.77 595.28" class="st7"/>
		</g>
		<g id="shape28-108" v:mID="28" v:groupContext="shape" transform="translate(1178.15,240.236) rotate(90)">
			<title>Sheet.28</title>
			<path d="M0 595.28 L28.35 595.28" class="st2"/>
		</g>
		<g id="shape29-111" v:mID="29" v:groupContext="shape" transform="translate(363.189,-305.433)">
			<title>Sheet.29</title>
			<path d="M0 595.28 L0 588.19 L7.09 588.19 L7.09 574.02" class="st2"/>
		</g>
		<g id="shape30-114" v:mID="30" v:groupContext="shape" transform="translate(958.465,296.929) rotate(90)">
			<title>Sheet.30</title>
			<path d="M0 595.28 L7.09 595.28" class="st2"/>
		</g>
		<g id="shape31-117" v:mID="31" v:groupContext="shape" transform="translate(363.189,-262.913)">
			<title>Sheet.31</title>
			<path d="M0 574.02 L0 581.1 L7.09 581.1 L7.09 595.28" class="st2"/>
		</g>
		<g id="shape32-120" v:mID="32" v:groupContext="shape" transform="translate(370.276,-262.913)">
			<title>Sheet.32</title>
			<path d="M3.22 595.28 L3.58 595.28 L14.17 595.28 L14.17 531.5 L3.58 531.5" class="st3"/>
		</g>
		<g id="shape33-127" v:mID="33" v:groupContext="shape" transform="translate(377.362,-291.26)">
			<title>Sheet.33</title>
			<path d="M0 595.28 L14.17 595.28 L7.09 581.1 L0 595.28 Z" class="st5"/>
		</g>
		<g id="shape34-129" v:mID="34" v:groupContext="shape" transform="translate(377.362,-305.433)">
			<title>Sheet.34</title>
			<path d="M0 595.28 L14.17 595.28" class="st2"/>
		</g>
		<g id="shape35-132" v:mID="35" v:groupContext="shape" transform="translate(313.583,-277.087)">
			<title>Sheet.35</title>
			<path d="M42.52 595.28 L42.52 559.84 L28.35 559.84 L28.35 574.02 L3.58 574.02" class="st6"/>
		</g>
		<g id="shape36-137" v:mID="36" v:groupContext="shape" transform="translate(965.551,332.362) rotate(90)">
			<title>Sheet.36</title>
			<path d="M0 595.28 L24.77 595.28" class="st7"/>
		</g>
		<g id="shape37-142" v:mID="37" v:groupContext="shape" transform="translate(-225,119.764) rotate(-90) scale(-1,1)">
			<title>Sheet.37</title>
			<path d="M0 595.28 L24.77 595.28" class="st7"/>
		</g>
		<g id="shape38-147" v:mID="38" v:groupContext="shape" transform="translate(-118.701,119.764) rotate(-90) scale(-1,1)">
			<title>Sheet.38</title>
			<path d="M0 595.28 L24.77 595.28" class="st7"/>
		</g>
		<g id="shape39-152" v:mID="39" v:groupContext="shape" transform="translate(-12.4016,119.764) rotate(-90) scale(-1,1)">
			<title>Sheet.39</title>
			<path d="M0 595.28 L24.77 595.28" class="st7"/>
		</g>
		<g id="shape40-157" v:mID="40" v:groupContext="shape" transform="translate(469.488,-305.433)">
			<title>Sheet.40</title>
			<path d="M0 595.28 L0 588.19 L7.09 588.19 L7.09 574.02" class="st2"/>
		</g>
		<g id="shape41-160" v:mID="41" v:groupContext="shape" transform="translate(1064.76,296.929) rotate(90)">
			<title>Sheet.41</title>
			<path d="M0 595.28 L7.09 595.28" class="st2"/>
		</g>
		<g id="shape42-163" v:mID="42" v:groupContext="shape" transform="translate(469.488,-262.913)">
			<title>Sheet.42</title>
			<path d="M0 574.02 L0 581.1 L7.09 581.1 L7.09 595.28" class="st2"/>
		</g>
		<g id="shape43-166" v:mID="43" v:groupContext="shape" transform="translate(476.575,-262.913)">
			<title>Sheet.43</title>
			<path d="M3.22 595.28 L3.58 595.28 L14.17 595.28 L14.17 531.5 L3.58 531.5" class="st3"/>
		</g>
		<g id="shape44-173" v:mID="44" v:groupContext="shape" transform="translate(483.661,-291.26)">
			<title>Sheet.44</title>
			<path d="M0 595.28 L14.17 595.28 L7.09 581.1 L0 595.28 Z" class="st5"/>
		</g>
		<g id="shape45-175" v:mID="45" v:groupContext="shape" transform="translate(483.661,-305.433)">
			<title>Sheet.45</title>
			<path d="M0 595.28 L14.17 595.28" class="st2"/>
		</g>
		<g id="shape46-178" v:mID="46" v:groupContext="shape" transform="translate(419.882,-277.087)">
			<title>Sheet.46</title>
			<path d="M42.52 595.28 L42.52 559.84 L28.35 559.84 L28.35 574.02 L3.58 574.02" class="st6"/>
		</g>
		<g id="shape47-183" v:mID="47" v:groupContext="shape" transform="translate(1071.85,332.362) rotate(90)">
			<title>Sheet.47</title>
			<path d="M0 595.28 L24.77 595.28" class="st7"/>
		</g>
		<g id="shape48-188" v:mID="48" v:groupContext="shape" transform="translate(575.787,-305.433)">
			<title>Sheet.48</title>
			<path d="M0 595.28 L0 588.19 L7.09 588.19 L7.09 574.02" class="st2"/>
		</g>
		<g id="shape49-191" v:mID="49" v:groupContext="shape" transform="translate(1171.06,296.929) rotate(90)">
			<title>Sheet.49</title>
			<path d="M0 595.28 L7.09 595.28" class="st2"/>
		</g>
		<g id="shape50-194" v:mID="50" v:groupContext="shape" transform="translate(575.787,-262.913)">
			<title>Sheet.50</title>
			<path d="M0 574.02 L0 581.1 L7.09 581.1 L7.09 595.28" class="st2"/>
		</g>
		<g id="shape51-197" v:mID="51" v:groupContext="shape" transform="translate(582.874,-262.913)">
			<title>Sheet.51</title>
			<path d="M3.22 595.28 L3.58 595.28 L14.17 595.28 L14.17 531.5 L3.58 531.5" class="st3"/>
		</g>
		<g id="shape52-204" v:mID="52" v:groupContext="shape" transform="translate(589.961,-291.26)">
			<title>Sheet.52</title>
			<path d="M0 595.28 L14.17 595.28 L7.09 581.1 L0 595.28 Z" class="st5"/>
		</g>
		<g id="shape53-206" v:mID="53" v:groupContext="shape" transform="translate(589.961,-305.433)">
			<title>Sheet.53</title>
			<path d="M0 595.28 L14.17 595.28" class="st2"/>
		</g>
		<g id="shape54-209" v:mID="54" v:groupContext="shape" transform="translate(526.181,-277.087)">
			<title>Sheet.54</title>
			<path d="M42.52 595.28 L42.52 559.84 L28.35 559.84 L28.35 574.02 L3.58 574.02" class="st6"/>
		</g>
		<g id="shape55-214" v:mID="55" v:groupContext="shape" transform="translate(1178.15,332.362) rotate(90)">
			<title>Sheet.55</title>
			<path d="M0 595.28 L24.77 595.28" class="st7"/>
		</g>
		<g id="shape56-219" v:mID="56" v:groupContext="shape" transform="translate(263.976,842.598) scale(1,-1)">
			<title>Sheet.56</title>
			<path d="M0 595.28 L0 481.89 L318.9 481.89" class="st2"/>
		</g>
		<g id="shape57-222" v:mID="57" v:groupContext="shape" transform="translate(370.276,-206.22)">
			<title>Sheet.57</title>
			<path d="M0 446.46 L28.35 446.46 L28.35 595.28" class="st2"/>
		</g>
		<g id="shape58-225" v:mID="58" v:groupContext="shape" transform="translate(391.535,-177.874)">
			<title>Sheet.58</title>
			<desc>L</desc>
			<v:textBlock v:margins="rect(4,4,4,4)" v:tabSpace="42.5197"/>
			<v:textRect cx="7.08661" cy="581.102" width="14.18" height="28.3465"/>
			<rect x="0" y="566.929" width="14.1732" height="28.3465" class="st8"/>
			<text x="4.56" y="584.7" class="st9" v:langID="2055"><v:paragraph v:horizAlign="1"/><v:tabList/>L</text>		</g>
		<g id="shape59-228" v:mID="59" v:groupContext="shape" transform="translate(391.535,-135.354)">
			<title>Sheet.59</title>
			<desc>R</desc>
			<v:textBlock v:margins="rect(4,4,4,4)" v:tabSpace="42.5197"/>
			<v:textRect cx="7.08661" cy="581.102" width="14.18" height="28.3465"/>
			<rect x="0" y="566.929" width="14.1732" height="28.3465" class="st5"/>
			<text x="4" y="584.7" class="st9" v:langID="2055"><v:paragraph v:horizAlign="1"/><v:tabList/>R</text>		</g>
		<g id="shape60-231" v:mID="60" v:groupContext="shape" transform="translate(993.898,417.402) rotate(90)">
			<title>Sheet.60</title>
			<path d="M0 595.28 L14.17 595.28" class="st2"/>
		</g>
		<g id="shape61-234" v:mID="61" v:groupContext="shape" transform="translate(476.575,-206.22)">
			<title>Sheet.61</title>
			<path d="M0 446.46 L28.35 446.46 L28.35 595.28" class="st2"/>
		</g>
		<g id="shape62-237" v:mID="62" v:groupContext="shape" transform="translate(497.835,-177.874)">
			<title>Sheet.62</title>
			<desc>L</desc>
			<v:textBlock v:margins="rect(4,4,4,4)" v:tabSpace="42.5197"/>
			<v:textRect cx="7.08661" cy="581.102" width="14.18" height="28.3465"/>
			<rect x="0" y="566.929" width="14.1732" height="28.3465" class="st8"/>
			<text x="4.56" y="584.7" class="st9" v:langID="2055"><v:paragraph v:horizAlign="1"/><v:tabList/>L</text>		</g>
		<g id="shape63-240" v:mID="63" v:groupContext="shape" transform="translate(497.835,-135.354)">
			<title>Sheet.63</title>
			<desc>R</desc>
			<v:textBlock v:margins="rect(4,4,4,4)" v:tabSpace="42.5197"/>
			<v:textRect cx="7.08661" cy="581.102" width="14.18" height="28.3465"/>
			<rect x="0" y="566.929" width="14.1732" height="28.3465" class="st5"/>
			<text x="4" y="584.7" class="st9" v:langID="2055"><v:paragraph v:horizAlign="1"/><v:tabList/>R</text>		</g>
		<g id="shape64-243" v:mID="64" v:groupContext="shape" transform="translate(1100.2,417.402) rotate(90)">
			<title>Sheet.64</title>
			<path d="M0 595.28 L14.17 595.28" class="st2"/>
		</g>
		<g id="shape65-246" v:mID="65" v:groupContext="shape" transform="translate(582.874,-206.22)">
			<title>Sheet.65</title>
			<path d="M0 446.46 L28.35 446.46 L28.35 595.28" class="st2"/>
		</g>
		<g id="shape66-249" v:mID="66" v:groupContext="shape" transform="translate(604.134,-177.874)">
			<title>Sheet.66</title>
			<desc>L</desc>
			<v:textBlock v:margins="rect(4,4,4,4)" v:tabSpace="42.5197"/>
			<v:textRect cx="7.08661" cy="581.102" width="14.18" height="28.3465"/>
			<rect x="0" y="566.929" width="14.1732" height="28.3465" class="st8"/>
			<text x="4.56" y="584.7" class="st9" v:langID="2055"><v:paragraph v:horizAlign="1"/><v:tabList/>L</text>		</g>
		<g id="shape67-252" v:mID="67" v:groupContext="shape" transform="translate(604.134,-135.354)">
			<title>Sheet.67</title>
			<desc>R</desc>
			<v:textBlock v:margins="rect(4,4,4,4)" v:tabSpace="42.5197"/>
			<v:textRect cx="7.08661" cy="581.102" width="14.18" height="28.3465"/>
			<rect x="0" y="566.929" width="14.1732" height="28.3465" class="st5"/>
			<text x="4" y="584.7" class="st9" v:langID="2055"><v:paragraph v:horizAlign="1"/><v:tabList/>R</text>		</g>
		<g id="shape68-255" v:mID="68" v:groupContext="shape" transform="translate(1206.5,417.402) rotate(90)">
			<title>Sheet.68</title>
			<path d="M0 595.28 L14.17 595.28" class="st2"/>
		</g>
		<g id="shape69-258" v:mID="69" v:groupContext="shape" transform="translate(398.622,-121.181)">
			<title>Sheet.69</title>
			<path d="M0 581.1 L0 595.28 L212.6 595.28 L212.6 581.1" class="st2"/>
		</g>
		<g id="shape70-261" v:mID="70" v:groupContext="shape" transform="translate(1100.2,459.921) rotate(90)">
			<title>Sheet.70</title>
			<path d="M0 595.28 L10.6 595.28" class="st7"/>
		</g>
		<g id="shape71-266" v:mID="71" v:groupContext="shape" transform="translate(256.89,-362.126)">
			<title>Sheet.71</title>
			<path d="M0 595.28 L14.17 595.28" class="st2"/>
		</g>
		<g id="shape72-269" v:mID="72" v:groupContext="shape" transform="translate(256.89,-347.953)">
			<title>Sheet.72</title>
			<path d="M0 595.28 L14.17 595.28" class="st2"/>
		</g>
		<g id="shape73-272" v:mID="73" v:groupContext="shape" transform="translate(249.803,-362.126)">
			<title>Sheet.73</title>
			<desc>+</desc>
			<v:textBlock v:margins="rect(4,4,4,4)" v:tabSpace="42.5197"/>
			<v:textRect cx="7.08661" cy="588.189" width="14.18" height="14.1732"/>
			<rect x="0" y="581.102" width="14.1732" height="14.1732" class="st10"/>
			<text x="4" y="592.99" class="st11" v:langID="2055"><v:paragraph v:horizAlign="1"/><v:tabList/>+</text>		</g>
		<g id="shape74-275" v:mID="74" v:groupContext="shape" transform="translate(249.803,-333.78)">
			<title>Sheet.74</title>
			<desc>-</desc>
			<v:textBlock v:margins="rect(4,4,4,4)" v:tabSpace="42.5197"/>
			<v:textRect cx="7.08661" cy="588.189" width="14.18" height="14.1732"/>
			<rect x="0" y="581.102" width="14.1732" height="14.1732" class="st10"/>
			<text x="4.64" y="592.99" class="st11" v:langID="2055"><v:paragraph v:horizAlign="1"/><v:tabList/>-</text>		</g>
		<g id="shape75-278" v:mID="75" v:groupContext="shape" transform="translate(204.094,-340.866)">
			<title>Sheet.75</title>
			<desc>VDC</desc>
			<v:textBlock v:margins="rect(4,4,4,4)" v:tabSpace="42.5197"/>
			<v:textRect cx="26.3976" cy="581.102" width="52.8" height="28.3465"/>
			<rect x="0" y="566.929" width="52.7953" height="28.3465" class="st10"/>
			<text x="16.52" y="588.3" class="st12" v:langID="2055"><v:paragraph v:horizAlign="2"/><v:tabList/>V<tspan dy="-0.284em"
						class="st13" v:baseFontSize="24">DC</tspan></text>		</g>
		<g id="shape76-282" v:mID="76" v:groupContext="shape" transform="translate(292.323,-418.819)">
			<title>Sheet.76</title>
			<desc>S1</desc>
			<v:textBlock v:margins="rect(4,4,4,4)" v:tabSpace="42.5197"/>
			<v:textRect cx="10.6299" cy="584.646" width="21.26" height="21.2598"/>
			<rect x="0" y="574.016" width="21.2598" height="21.2598" class="st10"/>
			<text x="4.43" y="589.45" class="st11" v:langID="2055"><v:paragraph v:horizAlign="2"/><v:tabList/>S<tspan dy="-0.284em"
						class="st14" v:baseFontSize="16">1</tspan></text>		</g>
		<g id="shape77-286" v:mID="77" v:groupContext="shape" transform="translate(398.622,-418.819)">
			<title>Sheet.77</title>
			<desc>S3</desc>
			<v:textBlock v:margins="rect(4,4,4,4)" v:tabSpace="42.5197"/>
			<v:textRect cx="10.6299" cy="584.646" width="21.26" height="21.2598"/>
			<rect x="0" y="574.016" width="21.2598" height="21.2598" class="st10"/>
			<text x="4.43" y="589.45" class="st11" v:langID="2055"><v:paragraph v:horizAlign="2"/><v:tabList/>S<tspan dy="-0.284em"
						class="st14" v:baseFontSize="16">3</tspan></text>		</g>
		<g id="shape78-290" v:mID="78" v:groupContext="shape" transform="translate(504.921,-418.819)">
			<title>Sheet.78</title>
			<desc>S5</desc>
			<v:textBlock v:margins="rect(4,4,4,4)" v:tabSpace="42.5197"/>
			<v:textRect cx="10.6299" cy="584.646" width="21.26" height="21.2598"/>
			<rect x="0" y="574.016" width="21.2598" height="21.2598" class="st10"/>
			<text x="4.43" y="589.45" class="st11" v:langID="2055"><v:paragraph v:horizAlign="2"/><v:tabList/>S<tspan dy="-0.284em"
						class="st14" v:baseFontSize="16">5</tspan></text>		</g>
		<g id="shape79-294" v:mID="79" v:groupContext="shape" transform="translate(292.323,-298.346)">
			<title>Sheet.79</title>
			<desc>S2</desc>
			<v:textBlock v:margins="rect(4,4,4,4)" v:tabSpace="42.5197"/>
			<v:textRect cx="10.6299" cy="584.646" width="21.26" height="21.2598"/>
			<rect x="0" y="574.016" width="21.2598" height="21.2598" class="st10"/>
			<text x="4.43" y="589.45" class="st11" v:langID="2055"><v:paragraph v:horizAlign="2"/><v:tabList/>S<tspan dy="-0.284em"
						class="st14" v:baseFontSize="16">2</tspan></text>		</g>
		<g id="shape80-298" v:mID="80" v:groupContext="shape" transform="translate(398.622,-298.346)">
			<title>Sheet.80</title>
			<desc>S4</desc>
			<v:textBlock v:margins="rect(4,4,4,4)" v:tabSpace="42.5197"/>
			<v:textRect cx="10.6299" cy="584.646" width="21.26" height="21.2598"/>
			<rect x="0" y="574.016" width="21.2598" height="21.2598" class="st10"/>
			<text x="4.43" y="589.45" class="st11" v:langID="2055"><v:paragraph v:horizAlign="2"/><v:tabList/>S<tspan dy="-0.284em"
						class="st14" v:baseFontSize="16">4</tspan></text>		</g>
		<g id="shape81-302" v:mID="81" v:groupContext="shape" transform="translate(504.921,-298.346)">
			<title>Sheet.81</title>
			<desc>S6</desc>
			<v:textBlock v:margins="rect(4,4,4,4)" v:tabSpace="42.5197"/>
			<v:textRect cx="10.6299" cy="584.646" width="21.26" height="21.2598"/>
			<rect x="0" y="574.016" width="21.2598" height="21.2598" class="st10"/>
			<text x="4.43" y="589.45" class="st11" v:langID="2055"><v:paragraph v:horizAlign="2"/><v:tabList/>S<tspan dy="-0.284em"
						class="st14" v:baseFontSize="16">6</tspan></text>		</g>
	</g>
</svg>
